<?xml version="1.0" encoding="UTF-8"?>
<!-- Do not edit this file with editors other than draw.io -->
<!DOCTYPE svg PUBLIC "-//W3C//DTD SVG 1.1//EN" "http://www.w3.org/Graphics/SVG/1.1/DTD/svg11.dtd">
<svg xmlns="http://www.w3.org/2000/svg" style="background: transparent; background-color: transparent; color-scheme: light dark;" xmlns:xlink="http://www.w3.org/1999/xlink" version="1.1" width="401px" height="242px" viewBox="0 0 401 242" content="&lt;mxfile host=&quot;app.diagrams.net&quot; agent=&quot;Mozilla/5.0 (X11; Linux x86_64) AppleWebKit/537.36 (KHTML, like Gecko) Chrome/142.0.0.0 Safari/537.36&quot; version=&quot;28.2.9&quot; scale=&quot;1&quot; border=&quot;0&quot;&gt;&#10;  &lt;diagram name=&quot;Page-1&quot; id=&quot;_75SoDMpHK1Svldn14WE&quot;&gt;&#10;    &lt;mxGraphModel dx=&quot;790&quot; dy=&quot;464&quot; grid=&quot;1&quot; gridSize=&quot;10&quot; guides=&quot;1&quot; tooltips=&quot;1&quot; connect=&quot;1&quot; arrows=&quot;1&quot; fold=&quot;1&quot; page=&quot;1&quot; pageScale=&quot;1&quot; pageWidth=&quot;850&quot; pageHeight=&quot;1100&quot; math=&quot;0&quot; shadow=&quot;0&quot;&gt;&#10;      &lt;root&gt;&#10;        &lt;mxCell id=&quot;0&quot; /&gt;&#10;        &lt;mxCell id=&quot;1&quot; parent=&quot;0&quot; /&gt;&#10;        &lt;mxCell id=&quot;gg1FHfEsosrXCkAw5cpR-1&quot; value=&quot;&quot; style=&quot;shape=cube;whiteSpace=wrap;html=1;boundedLbl=1;backgroundOutline=1;darkOpacity=0.05;darkOpacity2=0.1;direction=south;fillColor=#37AE37;strokeColor=#36393D;opacity=80;&quot; vertex=&quot;1&quot; parent=&quot;1&quot;&gt;&#10;          &lt;mxGeometry x=&quot;210&quot; y=&quot;280&quot; width=&quot;40&quot; height=&quot;240&quot; as=&quot;geometry&quot; /&gt;&#10;        &lt;/mxCell&gt;&#10;        &lt;mxCell id=&quot;gg1FHfEsosrXCkAw5cpR-2&quot; value=&quot;&quot; style=&quot;shape=cube;whiteSpace=wrap;html=1;boundedLbl=1;backgroundOutline=1;darkOpacity=0.05;darkOpacity2=0.1;direction=south;fillColor=#37AE37;strokeColor=#36393D;opacity=80;&quot; vertex=&quot;1&quot; parent=&quot;1&quot;&gt;&#10;          &lt;mxGeometry x=&quot;240&quot; y=&quot;320&quot; width=&quot;80&quot; height=&quot;160&quot; as=&quot;geometry&quot; /&gt;&#10;        &lt;/mxCell&gt;&#10;        &lt;mxCell id=&quot;gg1FHfEsosrXCkAw5cpR-3&quot; value=&quot;&quot; style=&quot;shape=cube;whiteSpace=wrap;html=1;boundedLbl=1;backgroundOutline=1;darkOpacity=0.05;darkOpacity2=0.1;direction=south;fillColor=#37AE37;strokeColor=#36393D;opacity=80;&quot; vertex=&quot;1&quot; parent=&quot;1&quot;&gt;&#10;          &lt;mxGeometry x=&quot;310&quot; y=&quot;350&quot; width=&quot;120&quot; height=&quot;100&quot; as=&quot;geometry&quot; /&gt;&#10;        &lt;/mxCell&gt;&#10;        &lt;mxCell id=&quot;gg1FHfEsosrXCkAw5cpR-4&quot; value=&quot;&quot; style=&quot;shape=cube;whiteSpace=wrap;html=1;boundedLbl=1;backgroundOutline=1;darkOpacity=0.05;darkOpacity2=0.1;direction=south;fillColor=#37AE37;strokeColor=#36393D;opacity=80;&quot; vertex=&quot;1&quot; parent=&quot;1&quot;&gt;&#10;          &lt;mxGeometry x=&quot;420&quot; y=&quot;360&quot; width=&quot;100&quot; height=&quot;80&quot; as=&quot;geometry&quot; /&gt;&#10;        &lt;/mxCell&gt;&#10;        &lt;mxCell id=&quot;gg1FHfEsosrXCkAw5cpR-5&quot; value=&quot;&quot; style=&quot;shape=cube;whiteSpace=wrap;html=1;boundedLbl=1;backgroundOutline=1;darkOpacity=0.05;darkOpacity2=0.1;direction=south;fillColor=#37AE37;strokeColor=#36393D;opacity=80;&quot; vertex=&quot;1&quot; parent=&quot;1&quot;&gt;&#10;          &lt;mxGeometry x=&quot;510&quot; y=&quot;360&quot; width=&quot;100&quot; height=&quot;80&quot; as=&quot;geometry&quot; /&gt;&#10;        &lt;/mxCell&gt;&#10;      &lt;/root&gt;&#10;    &lt;/mxGraphModel&gt;&#10;  &lt;/diagram&gt;&#10;&lt;/mxfile&gt;&#10;"><defs/><g><g data-cell-id="0"><g data-cell-id="1"><g data-cell-id="gg1FHfEsosrXCkAw5cpR-1"><g><path d="M -100 100 L 120 100 L 140 120 L 140 140 L -80 140 L -100 120 L -100 100 Z" fill-opacity="0.8" fill="#37ae37" stroke="#36393d" stroke-opacity="0.8" stroke-miterlimit="10" transform="rotate(90,20,120)" pointer-events="all" style="fill: light-dark(rgb(55, 174, 55), rgb(44, 146, 44)); stroke: light-dark(rgb(54, 57, 61), rgb(186, 189, 192));"/><path d="M -100 100 L 120 100 L 140 120 L -80 120 Z" fill-opacity="0.04000000000000001" fill="#000000" stroke="none" transform="rotate(90,20,120)" pointer-events="all" style="fill: light-dark(rgb(0, 0, 0), rgb(237, 237, 237));"/><path d="M -100 100 L -80 120 L -80 140 L -100 120 Z" fill-opacity="0.08000000000000002" fill="#000000" stroke="none" transform="rotate(90,20,120)" pointer-events="all" style="fill: light-dark(rgb(0, 0, 0), rgb(237, 237, 237));"/><path d="M -80 140 L -80 120 L -100 100 M -80 120 L 140 120" fill="none" stroke="#36393d" stroke-opacity="0.8" stroke-miterlimit="10" transform="rotate(90,20,120)" pointer-events="all" style="stroke: light-dark(rgb(54, 57, 61), rgb(186, 189, 192));"/></g></g><g data-cell-id="gg1FHfEsosrXCkAw5cpR-2"><g><path d="M -10 80 L 130 80 L 150 100 L 150 160 L 10 160 L -10 140 L -10 80 Z" fill-opacity="0.8" fill="#37ae37" stroke="#36393d" stroke-opacity="0.8" stroke-miterlimit="10" transform="rotate(90,70,120)" pointer-events="all" style="fill: light-dark(rgb(55, 174, 55), rgb(44, 146, 44)); stroke: light-dark(rgb(54, 57, 61), rgb(186, 189, 192));"/><path d="M -10 80 L 130 80 L 150 100 L 10 100 Z" fill-opacity="0.04000000000000001" fill="#000000" stroke="none" transform="rotate(90,70,120)" pointer-events="all" style="fill: light-dark(rgb(0, 0, 0), rgb(237, 237, 237));"/><path d="M -10 80 L 10 100 L 10 160 L -10 140 Z" fill-opacity="0.08000000000000002" fill="#000000" stroke="none" transform="rotate(90,70,120)" pointer-events="all" style="fill: light-dark(rgb(0, 0, 0), rgb(237, 237, 237));"/><path d="M 10 160 L 10 100 L -10 80 M 10 100 L 150 100" fill="none" stroke="#36393d" stroke-opacity="0.8" stroke-miterlimit="10" transform="rotate(90,70,120)" pointer-events="all" style="stroke: light-dark(rgb(54, 57, 61), rgb(186, 189, 192));"/></g></g><g data-cell-id="gg1FHfEsosrXCkAw5cpR-3"><g><path d="M 110 60 L 190 60 L 210 80 L 210 180 L 130 180 L 110 160 L 110 60 Z" fill-opacity="0.8" fill="#37ae37" stroke="#36393d" stroke-opacity="0.8" stroke-miterlimit="10" transform="rotate(90,160,120)" pointer-events="all" style="fill: light-dark(rgb(55, 174, 55), rgb(44, 146, 44)); stroke: light-dark(rgb(54, 57, 61), rgb(186, 189, 192));"/><path d="M 110 60 L 190 60 L 210 80 L 130 80 Z" fill-opacity="0.04000000000000001" fill="#000000" stroke="none" transform="rotate(90,160,120)" pointer-events="all" style="fill: light-dark(rgb(0, 0, 0), rgb(237, 237, 237));"/><path d="M 110 60 L 130 80 L 130 180 L 110 160 Z" fill-opacity="0.08000000000000002" fill="#000000" stroke="none" transform="rotate(90,160,120)" pointer-events="all" style="fill: light-dark(rgb(0, 0, 0), rgb(237, 237, 237));"/><path d="M 130 180 L 130 80 L 110 60 M 130 80 L 210 80" fill="none" stroke="#36393d" stroke-opacity="0.8" stroke-miterlimit="10" transform="rotate(90,160,120)" pointer-events="all" style="stroke: light-dark(rgb(54, 57, 61), rgb(186, 189, 192));"/></g></g><g data-cell-id="gg1FHfEsosrXCkAw5cpR-4"><g><path d="M 220 70 L 280 70 L 300 90 L 300 170 L 240 170 L 220 150 L 220 70 Z" fill-opacity="0.8" fill="#37ae37" stroke="#36393d" stroke-opacity="0.8" stroke-miterlimit="10" transform="rotate(90,260,120)" pointer-events="all" style="fill: light-dark(rgb(55, 174, 55), rgb(44, 146, 44)); stroke: light-dark(rgb(54, 57, 61), rgb(186, 189, 192));"/><path d="M 220 70 L 280 70 L 300 90 L 240 90 Z" fill-opacity="0.04000000000000001" fill="#000000" stroke="none" transform="rotate(90,260,120)" pointer-events="all" style="fill: light-dark(rgb(0, 0, 0), rgb(237, 237, 237));"/><path d="M 220 70 L 240 90 L 240 170 L 220 150 Z" fill-opacity="0.08000000000000002" fill="#000000" stroke="none" transform="rotate(90,260,120)" pointer-events="all" style="fill: light-dark(rgb(0, 0, 0), rgb(237, 237, 237));"/><path d="M 240 170 L 240 90 L 220 70 M 240 90 L 300 90" fill="none" stroke="#36393d" stroke-opacity="0.8" stroke-miterlimit="10" transform="rotate(90,260,120)" pointer-events="all" style="stroke: light-dark(rgb(54, 57, 61), rgb(186, 189, 192));"/></g></g><g data-cell-id="gg1FHfEsosrXCkAw5cpR-5"><g><path d="M 310 70 L 370 70 L 390 90 L 390 170 L 330 170 L 310 150 L 310 70 Z" fill-opacity="0.8" fill="#37ae37" stroke="#36393d" stroke-opacity="0.8" stroke-miterlimit="10" transform="rotate(90,350,120)" pointer-events="all" style="fill: light-dark(rgb(55, 174, 55), rgb(44, 146, 44)); stroke: light-dark(rgb(54, 57, 61), rgb(186, 189, 192));"/><path d="M 310 70 L 370 70 L 390 90 L 330 90 Z" fill-opacity="0.04000000000000001" fill="#000000" stroke="none" transform="rotate(90,350,120)" pointer-events="all" style="fill: light-dark(rgb(0, 0, 0), rgb(237, 237, 237));"/><path d="M 310 70 L 330 90 L 330 170 L 310 150 Z" fill-opacity="0.08000000000000002" fill="#000000" stroke="none" transform="rotate(90,350,120)" pointer-events="all" style="fill: light-dark(rgb(0, 0, 0), rgb(237, 237, 237));"/><path d="M 330 170 L 330 90 L 310 70 M 330 90 L 390 90" fill="none" stroke="#36393d" stroke-opacity="0.8" stroke-miterlimit="10" transform="rotate(90,350,120)" pointer-events="all" style="stroke: light-dark(rgb(54, 57, 61), rgb(186, 189, 192));"/></g></g></g></g></g></svg>